<?xml version="1.0" encoding="UTF-8"?>
<svg width="74px" height="74px" viewBox="0 0 74 74" version="1.1" xmlns="http://www.w3.org/2000/svg" xmlns:xlink="http://www.w3.org/1999/xlink">
    <!-- Generator: Sketch 53 (72520) - https://sketchapp.com -->
    <title>congratulations</title>
    <desc>Created with Sketch.</desc>
    <g id="congratulations" stroke="none" stroke-width="1" fill="none" fill-rule="evenodd">
        <g id="Group-2-Copy" transform="translate(7.000000, 0.000000)" fill-rule="nonzero">
            <g id="clap">
                <path d="M45.5437229,28.711728 C44.0820875,27.9105147 42.2523415,28.453272 41.4560068,29.9257905 L39.2169489,34.0284375 L26.7038905,27.5942464 L31.7480187,18.2667095 C32.6767382,16.5500183 32.0472353,14.3993934 30.3424442,13.4641912 C28.6369778,12.5289889 26.5012608,13.1635661 25.5732169,14.8802574 L21.4895533,22.43125 L21.2490994,22.875386 L15.723388,33.0905147 L10.8055656,28.7845036 C8.60635816,26.5475 5.02183902,26.529136 2.79966674,28.7436948 C2.26202265,29.2796507 2.25797014,30.1543199 2.79021078,30.6950367 L5.55002697,33.5026837 C9.48306916,37.5039889 10.2814302,39.0438419 9.51886703,44.0000735 L8.35982524,50.9362131 L27.767021,61.5791543 L30.1924982,57.0949448 C32.3437501,56.9323896 34.3713977,55.7135661 35.479782,53.6636029 L45.7882295,34.6045221 L46.7493697,32.8272978 C47.5450288,31.3561398 47.0053584,29.5136213 45.5437229,28.711728" id="Path" fill="#FFE3BA"></path>
                <path d="M45.5437229,28.711728 L46.1083843,27.6677022 C45.4748289,27.3201471 44.7825109,27.1521507 44.1050523,27.1528308 C42.621803,27.1514706 41.1804304,27.9513235 40.4192182,29.3571875 L40.4212446,29.3531066 L38.7340148,32.4457353 L28.3201999,27.0902574 L32.7848073,18.8346324 C33.17183,18.1204779 33.3575739,17.3403493 33.3568983,16.5765441 C33.3589247,14.9033824 32.4693804,13.2785111 30.9071056,12.4201654 L30.9064302,12.4194853 C30.1972262,12.0304412 29.4231807,11.8427206 28.663995,11.8434007 C27.0024315,11.8420405 25.3881484,12.7377941 24.5364284,14.3116543 L20.4527647,21.8626471 L20.4527647,21.861967 L20.2123108,22.3061029 L15.3897244,31.2228308 L11.579611,27.8873896 L10.8055656,28.7845036 L11.6444524,27.9479228 C10.3091229,26.5896692 8.5408411,25.904081 6.78269084,25.9061213 C5.04682997,25.904081 3.30016219,26.5719853 1.96956052,27.8989522 C1.4670389,28.3981801 1.21172542,29.0667647 1.21307637,29.724467 C1.21240098,30.3733272 1.46096006,31.03375 1.9513238,31.5316176 L4.71114017,34.3392647 C6.22883654,35.8797978 7.22239729,37.014283 7.79583942,38.0100183 C8.36657965,39.0105147 8.59014778,39.8600183 8.5982528,41.1638602 C8.59892836,41.8956986 8.51517476,42.7635661 8.35239562,43.8184742 L9.51886703,44.0000735 L8.35509718,43.8028308 L7.19605556,50.7389706 C7.11230179,51.2381986 7.35410663,51.7381066 7.79516386,51.9802389 L27.203035,62.6231801 C27.775126,62.9374081 28.4924352,62.7245221 28.8038094,62.1477574 L31.2292867,57.6635478 L30.1924982,57.0949448 L30.2809798,58.2804412 C32.8125,58.0906801 35.2096091,56.6494484 36.5165706,54.2315258 L46.8243425,35.1731249 L47.7854827,33.396581 C48.1306286,32.7586029 48.2974603,32.0614522 48.2967849,31.3792647 C48.2988112,29.8856618 47.5038275,28.4335478 46.1083843,27.6677022 L44.9790616,29.7557536 C45.5916787,30.090386 45.9347983,30.7222426 45.936149,31.3792647 C45.936149,31.6778493 45.8659041,31.9757536 45.7125811,32.2593751 L44.7514409,34.035919 L34.4429934,53.095 C33.5331863,54.7776837 31.875,55.7740993 30.1040165,55.9101287 C29.7028098,55.9407353 29.3482079,56.1713052 29.1563851,56.5270221 L27.2948938,59.9672059 L9.66340963,50.2975552 L10.6833123,44.1973163 L10.6853386,44.1823529 C10.8582493,43.0567095 10.9588886,42.0752574 10.959564,41.1638602 C10.9676694,39.5519118 10.6110412,38.1317647 9.83429395,36.8102389 C9.06092403,35.4853125 7.93970646,34.2474448 6.38891395,32.666783 L3.62842219,29.859136 L3.57371222,29.724467 L3.62977314,29.5891176 L3.62977314,29.5884375 C4.50648415,28.7151287 5.63918403,28.2845955 6.78201545,28.2832353 C7.94038184,28.2845955 9.08726594,28.7273713 9.96600329,29.6204045 L10.0308448,29.6816176 L14.9486671,33.9876287 C15.2195154,34.2243199 15.5795208,34.3243014 15.9327719,34.2603676 C16.2853477,34.1964339 16.5886167,33.9760661 16.7601766,33.6584375 L22.2852124,23.4433088 L22.5256665,22.9998529 L22.5256665,22.9991728 L26.60933,15.4481801 C27.0328261,14.6632905 27.8332133,14.2225552 28.663995,14.2205147 C29.0415616,14.2211948 29.4198036,14.3116543 29.7777828,14.508217 L29.7777828,14.5075367 C30.5572316,14.9346692 30.9949117,15.7406434 30.996938,16.5765441 C30.9962627,16.9567464 30.9064302,17.3376287 30.7112301,17.6981066 L25.6671019,27.0256434 C25.5144543,27.3085846 25.4813582,27.6377758 25.5759185,27.9452022 C25.6704792,28.2526287 25.8818895,28.5056434 26.1669218,28.6525552 L38.6799802,35.0867464 C39.2480187,35.3785294 39.9443895,35.1629228 40.251711,34.6004412 L42.4900937,30.4977941 L42.49212,30.4937131 C42.8251081,29.8768199 43.4525846,29.5313052 44.1043767,29.5299448 C44.4008915,29.5299448 44.696731,29.6006801 44.9790616,29.7550735 L45.5437229,28.711728 Z" id="Path" fill="#3D3D63"></path>
                <path d="M30.9570875,34.5337869 L40.8055656,16.3228493 C41.7349605,14.6061581 41.1054574,12.455533 39.399991,11.5210111 C37.6945245,10.5858088 35.5594831,11.2197059 34.6307637,12.9370772 L24.7822857,31.1473346" id="Path" fill="#FFE3BA"></path>
                <path d="M31.9932007,35.1023896 L41.8423541,16.8914522 L41.8416787,16.8914522 C42.2293767,16.1766176 42.4151206,15.3971692 42.4151206,14.6326837 C42.4164716,12.9595221 41.5269271,11.3339706 39.9639769,10.4763052 C39.2540976,10.0872611 38.4800523,9.89954048 37.7215418,9.90022059 C36.0599784,9.8981801 34.4456953,10.794614 33.5939751,12.3684742 L23.7448217,30.5787317 C23.4334475,31.1548163 23.6448578,31.8771324 24.2169489,32.1913602 C24.7897155,32.5049081 25.5063491,32.2920221 25.8183987,31.7152574 L35.6675523,13.505 C36.0917237,12.7201104 36.8914356,12.2793751 37.7215418,12.2773346 C38.0991085,12.2780147 38.4773505,12.3684742 38.836005,12.5643566 C39.6147785,12.9914889 40.053134,13.796783 40.054485,14.6326837 C40.054485,15.0122059 39.9646523,15.3937683 39.7694524,15.7535661 L39.7687771,15.7542464 L29.9202989,33.9651837 C29.6082493,34.5412683 29.8196595,35.2635846 30.3924261,35.5778125 C30.9645173,35.8913602 31.6818263,35.6791543 31.9932007,35.1023896 Z" id="Path" fill="#3D3D63"></path>
                <polygon id="Path" fill="#F6716F" points="29.0246758 62.0287317 23.2591859 72.6886765 1.20497118 60.5943014 6.9704611 49.9336765"></polygon>
                <path d="M29.0246758,62.0287317 L27.9878872,61.4601287 L22.7870587,71.0760478 L2.80642115,60.1181986 L7.4425883,51.5463052 L28.4600144,63.0727574 L29.0246758,62.0287317 L27.9878872,61.4601287 L29.0246758,62.0287317 L29.5893372,60.9847059 L7.53512248,48.8903308 C6.9630313,48.5761029 6.24572231,48.7889889 5.93367251,49.3657536 L0.168857983,60.0256986 C0.0195874928,60.3004779 -0.0148595101,60.6296692 0.0729466859,60.9302941 C0.160752968,61.2302389 0.368110548,61.4880147 0.640985187,61.6376471 L22.6945245,73.7327022 C22.9680745,73.8823346 23.2949837,73.9177022 23.5928493,73.8286029 C23.8913905,73.7401837 24.1473794,73.5320588 24.2959745,73.2572794 L30.0614644,62.5973346 C30.2100595,62.3225552 30.245182,61.9926837 30.1573757,61.6927389 C30.0688942,61.392114 29.8622118,61.1343382 29.5893372,60.9847059 L29.0246758,62.0287317 Z" id="Path" fill="#3D3D63"></path>
                <path d="M11.3060609,57.5948529 C10.9919848,56.5236213 9.87481988,55.9108088 8.81101401,56.2263971 C7.74653274,56.5426654 7.1379683,57.6669484 7.45136888,58.7388602 C7.76544484,59.810772 8.88260991,60.4235846 9.94641579,60.1073163 C11.0108971,59.791728 11.6194615,58.6667647 11.3060609,57.5948529 Z" id="Path" fill="#3D3D63"></path>
                <path d="M56.9301603,33.7060478 C55.6502161,32.6348163 53.7509006,32.809614 52.6864193,34.0984927 L49.6996579,37.6869484 L38.6624189,28.9300552 L45.4079611,20.7648896 C46.6494055,19.2617647 46.4461005,17.0302022 44.9533952,15.7794118 C43.4606898,14.5293014 41.2439212,14.7340258 40.0024765,16.2371507 L34.5416066,22.8468199 L34.2207763,23.2351837 L26.8335735,32.1784375 L22.8370407,26.9936765 C21.1106359,24.3689889 17.5977126,23.652114 14.9912194,25.3905699 C14.3610412,25.8109007 14.1881305,26.667886 14.6062229,27.3031434 L16.7730097,30.5964154 C19.8610861,35.2894301 20.3473973,36.9557905 18.6446326,41.6692095 L16.1725504,48.2475919 L33.1616984,62.4789889 L36.4044488,58.5531801 C38.5462446,58.8136765 40.7697676,58.0138235 42.2523415,56.2195955 L56.0345371,39.5355882 L57.3198847,37.980772 C58.384366,36.6912131 58.209429,34.7779595 56.9301603,33.7060478" id="Path" fill="#FFE3BA"></path>
                <path d="M56.9301603,33.7060478 L57.6846182,32.7919301 C56.9044938,32.1376287 55.9474063,31.8145588 55.0045029,31.815919 C53.8062861,31.8145588 52.6060428,32.3362317 51.7786383,33.3380882 L51.7813401,33.3346875 L49.5301243,36.0396324 L40.3455961,28.7525367 L46.3150667,21.5259742 C47.0431826,20.6451837 47.4018372,19.5664706 47.4011618,18.5034007 C47.4025126,17.1512683 46.8223162,15.7984559 45.7085284,14.8659742 L45.7085284,14.8652941 C44.8345191,14.1327758 43.7626081,13.7709375 42.7069074,13.7722978 C41.364148,13.7709375 40.0207133,14.3551837 39.0940202,15.4774265 L39.0946956,15.4767464 L33.6338256,22.0864154 L33.3123199,22.4754595 L33.3129953,22.4754595 L26.8646435,30.2808272 L23.7698127,26.2645588 L22.8370407,26.9936765 L23.8211455,26.3366543 C22.5060788,24.3377022 20.326459,23.2508272 18.1130673,23.2528676 C16.8162373,23.2521875 15.4984689,23.6255882 14.3387518,24.3995955 C13.5998289,24.8933824 13.1959203,25.7143199 13.1979467,26.5420588 C13.1972713,27.028364 13.3364103,27.5262317 13.6221182,27.9594853 L15.7889049,31.2527574 C16.7412643,32.6994301 17.4193985,33.8264339 17.8388419,34.775919 C18.2582853,35.7308457 18.431196,36.4830882 18.4345731,37.3264706 C18.4365994,38.3371692 18.1576459,39.5457905 17.5355727,41.2624817 L18.6446326,41.6692095 L17.5403007,41.2481986 L15.0682186,47.8272611 C14.8899045,48.3006434 15.03107,48.8379595 15.4167417,49.1617095 L32.4065652,63.3931066 C32.6456682,63.5930699 32.9597443,63.6910111 33.2697676,63.6624448 C33.5791157,63.6345588 33.8702269,63.4801654 34.068804,63.2393934 L37.3115544,59.3135846 L36.4037734,58.5531801 L36.2626081,59.7332353 C36.5739823,59.7713235 36.8860321,59.7896875 37.1980817,59.7896875 C39.4148505,59.791728 41.6282421,58.834081 43.1594471,56.9793199 L56.942318,40.2953125 L58.2269903,38.7404964 C58.8767561,37.9542464 59.1982618,36.9904779 59.1969111,36.0409927 C59.1982618,34.8337317 58.6795299,33.6251104 57.6846182,32.7919301 L56.9301603,33.7060478 L56.175027,34.6194853 C56.6133825,34.9874448 56.8349243,35.5070772 56.8362752,36.0409927 C56.8355998,36.4599633 56.6991624,36.8714522 56.4121037,37.2196875 L56.4127791,37.2196875 L55.1274315,38.7745036 L41.3452359,55.4585111 C40.2767021,56.7507905 38.7509006,57.410533 37.1987571,57.4118934 C36.9805926,57.4118934 36.7631033,57.3989706 36.5462896,57.3724448 C36.1464337,57.3241543 35.754683,57.4805882 35.4973433,57.7920955 L33.0097262,60.8037869 L17.5747478,47.8748713 L19.7489644,42.0888602 L19.7543678,42.0745772 C20.4115634,40.2511029 20.7931826,38.7785846 20.7958843,37.3251104 C20.7985861,36.1192095 20.5149045,34.9724817 19.9954971,33.8067095 C19.4760897,32.6361765 18.7331142,31.4234742 17.7571145,29.9387131 L15.5903277,26.6454412 L15.5592579,26.5413787 L15.6436869,26.380864 C16.4089518,25.8707536 17.2620227,25.6299817 18.1137427,25.6293014 C19.5699749,25.6306618 20.9904088,26.3366543 21.8536114,27.6493382 L21.9056196,27.7214339 L25.9014769,32.9061948 C26.1209924,33.1911765 26.4553314,33.3591728 26.813986,33.3659742 C27.171965,33.3720955 27.5123829,33.2149817 27.7413545,32.9374817 L35.1285572,23.9949081 L35.1292326,23.994228 L35.450063,23.6051837 L35.4493876,23.605864 L40.9102575,16.9961948 C41.3742795,16.4350735 42.0328261,16.1500919 42.7075829,16.1487317 C43.2371218,16.1494118 43.7599063,16.3248896 44.1996128,16.6921692 L44.1989374,16.6921692 C44.756169,17.1594301 45.039175,17.8232536 45.0405259,18.5020405 C45.0398505,19.0352758 44.8655889,19.5617095 44.5008555,20.0044853 L37.7553133,28.1689706 C37.5513329,28.4165441 37.4560969,28.7334927 37.4891931,29.0538419 C37.5222892,29.3741912 37.6810159,29.6639339 37.932952,29.863217 L48.9695154,38.6201104 C49.4700107,39.0173163 50.1947497,38.9418199 50.6047369,38.4493934 L53.5914986,34.8609375 L53.5942003,34.8575367 C53.9589337,34.4168014 54.4742886,34.1937131 55.0051783,34.1923529 C55.4212446,34.193033 55.829881,34.3297426 56.1757024,34.6194853 L56.1757024,34.6188052 L56.9301603,33.7060478 Z" id="Path" fill="#3D3D63"></path>
                <path d="M41.4992345,36.5687869 L54.6681375,20.6275 C55.9102575,19.1243751 55.7062771,16.8921324 54.2135716,15.6420221 C52.7208664,14.3912317 50.5040976,14.596636 49.2619778,16.0997611 L36.0930745,32.0410478" id="Path" fill="#FFE3BA"></path>
                <path d="M42.4063401,37.3291912 L55.5752431,21.3879045 C56.3033592,20.5077941 56.6626892,19.4284007 56.6613382,18.3653308 C56.6626892,17.0131986 56.0831682,15.660386 54.968705,14.7279045 L54.968705,14.7285846 C54.095371,13.995386 53.0234601,13.6335478 51.967084,13.634228 C50.625,13.6328676 49.2815652,14.217114 48.3548722,15.3386765 L48.3548722,15.3393566 L35.1859691,31.2806434 C34.7692273,31.7853125 34.8374459,32.5348346 35.3386167,32.9544853 C35.8397876,33.374136 36.5834384,33.3054412 37.0008555,32.800772 L50.1697587,16.8588052 L50.1690832,16.8594853 C50.6337806,16.2976837 51.2930025,16.0127022 51.967084,16.0113419 C52.4966229,16.0127022 53.0194074,16.1875 53.4591138,16.5554595 C54.0163454,17.0227206 54.2993516,17.685864 54.3007024,18.3653308 C54.300027,18.897886 54.1257655,19.4243199 53.7610321,19.8670955 L40.5921289,35.8083824 C40.1747118,36.3130516 40.243606,37.0625735 40.7441013,37.4829045 C41.2452719,37.9025552 41.9895984,37.8338602 42.4063401,37.3291912 L42.4063401,37.3291912 Z" id="Path" fill="#3D3D63"></path>
                <path d="M47.1303133,40.7972611 L58.1209473,27.4929045 C59.1462536,26.2509559 58.7680115,24.2315993 57.2753063,22.9808088 C55.7826009,21.7306986 53.7400937,21.7238971 52.7154629,22.9644853 L41.7241535,36.2688419" id="Path" fill="#FFE3BA"></path>
                <path d="M48.0374189,41.5576654 L59.0280529,28.2533088 L59.0287283,28.2533088 C59.6096002,27.5513971 59.8804485,26.6774081 59.8784222,25.8245036 C59.8730187,24.4288419 59.2043409,23.0542647 58.0304395,22.0666912 C57.0760537,21.2688787 55.9332223,20.8512683 54.8086274,20.8499081 C53.7015941,20.8451471 52.570245,21.2797611 51.807682,22.2047611 L40.817048,35.5091176 C40.4003063,36.0131066 40.4685249,36.7626287 40.9696956,37.1829595 C41.4708664,37.6026104 42.2151927,37.5339154 42.6319345,37.0292464 L53.6225685,23.7248896 C53.881259,23.4140625 54.2743606,23.2311029 54.8086274,23.2263419 C55.3415436,23.2249817 55.975099,23.4358272 56.5201729,23.8942464 L56.5201729,23.8935661 C57.196956,24.456728 57.521839,25.2239339 57.517111,25.8238235 C57.5144092,26.1951837 57.4110681,26.4896875 57.2131663,26.7325 L46.2225323,40.0368566 C45.8057907,40.5415258 45.8740095,41.2903676 46.3751801,41.7106986 C46.8763508,42.1310294 47.6206772,42.0623346 48.0374189,41.5576654 L48.0374189,41.5576654 Z" id="Path" fill="#3D3D63"></path>
                <polygon id="Path" fill="#F6716F" points="34.307907 63.1652574 26.5991984 72.4968751 7.29331781 56.3243382 15.0020263 46.9927206"></polygon>
                <path d="M34.307907,63.1652574 L33.4008016,62.4048529 L26.4465508,70.8223529 L8.9555566,56.1706249 L15.1546739,48.6665625 L33.5534492,64.0786948 L34.307907,63.1652574 L33.4008016,62.4048529 L34.307907,63.1652574 L35.0630403,62.2511398 L15.7571595,46.079283 C15.2559889,45.6589522 14.5116624,45.7283272 14.0949207,46.2329964 L6.38553683,55.5639339 C6.18695965,55.8047059 6.08902202,56.1216543 6.11806548,56.4331618 C6.14643372,56.7446692 6.2990815,57.0378125 6.53818444,57.2384559 L25.8447406,73.4103125 C26.3452359,73.8306434 27.0895624,73.7612683 27.5069794,73.2565993 L35.215688,63.9256618 C35.4142651,63.6848896 35.5122028,63.3679412 35.4838347,63.0564339 C35.4554665,62.7449265 35.3021433,62.451783 35.0630403,62.2511398 L34.307907,63.1652574 Z" id="Path" fill="#3D3D63"></path>
                <polygon id="Path" fill="#F0504D" points="27.8034942 59.4965441 21.7192003 66.8625367 26.4465508 70.8223529 32.5308448 63.4577206"></polygon>
                <polygon id="Path" fill="#54596E" points="32.5308448 63.4577206 26.4465508 70.8223529 21.7192003 66.8625367 21.3787824 67.2733457 26.7849424 71.8017647 33.2089788 64.0249633"></polygon>
                <path d="M17.7834564,55.3530882 C17.6821416,54.2403676 16.7041157,53.4207905 15.5991085,53.5228125 C14.4941013,53.6255147 13.6808808,54.6103676 13.7821956,55.7230882 C13.8835105,56.8358088 14.8615364,57.6547059 15.9665436,57.5526837 C17.0715508,57.4506618 17.8847713,56.4658088 17.7834564,55.3530882 Z" id="Path" fill="#3D3D63"></path>
                <g id="Group" transform="translate(12.449568, 0.000000)" fill="#3D3D63">
                    <path d="M8.78264594,11.5407353 L1.60144997,9.16838235 C0.982078617,8.96365813 0.314751354,9.30373166 0.111446282,9.92742647 C-0.0918587896,10.5511213 0.245857349,11.2231066 0.865228703,11.4278308 L8.04710006,13.8001837 C8.66647159,14.0049081 9.33312311,13.6648346 9.53642836,13.0411398 C9.73973343,12.4174448 9.40201729,11.7454595 8.78264594,11.5407353" id="Path"></path>
                    <path d="M11.075063,8.07878685 L7.84514594,3.10487128 C7.48784231,2.55531246 6.75634911,2.40091903 6.21127522,2.76003668 C5.66552594,3.1198346 5.51220277,3.85643391 5.86883101,4.40531246 L9.09874824,9.37922803 C9.45537648,9.92878685 10.1868695,10.0831801 10.7326188,9.72406246 C11.2783681,9.36426471 11.4316912,8.6276654 11.075063,8.07878685" id="Path"></path>
                    <path d="M15.4977935,9.01058824 L17.0371037,1.60650727 C17.1708394,0.964448442 16.7615274,0.333952249 16.1232439,0.199283045 C15.4856359,0.0652941176 14.8595101,0.476783045 14.7257744,1.11952215 L13.1871398,8.52360294 C13.0534043,9.16634187 13.4627161,9.79615813 14.1009996,9.93082716 C14.7392832,10.0648163 15.3647334,9.65332716 15.4977935,9.01058824" id="Path"></path>
                </g>
            </g>
        </g>
    </g>
</svg>